<svg width="16" height="19" viewBox="0 0 16 19" fill="none" xmlns="http://www.w3.org/2000/svg">
<path d="M6.33333 2.5C6.09722 2.5 5.89931 2.42014 5.73958 2.26042C5.57986 2.1007 5.5 1.90278 5.5 1.66667C5.5 1.43056 5.57986 1.23264 5.73958 1.07292C5.89931 0.913197 6.09722 0.833336 6.33333 0.833336H9.66667C9.90278 0.833336 10.1007 0.913197 10.2604 1.07292C10.4201 1.23264 10.5 1.43056 10.5 1.66667C10.5 1.90278 10.4201 2.1007 10.2604 2.26042C10.1007 2.42014 9.90278 2.5 9.66667 2.5H6.33333ZM8 11.6667C8.23611 11.6667 8.43403 11.5868 8.59375 11.4271C8.75347 11.2674 8.83333 11.0694 8.83333 10.8333V7.5C8.83333 7.26389 8.75347 7.06597 8.59375 6.90625C8.43403 6.74653 8.23611 6.66667 8 6.66667C7.76389 6.66667 7.56597 6.74653 7.40625 6.90625C7.24653 7.06597 7.16667 7.26389 7.16667 7.5V10.8333C7.16667 11.0694 7.24653 11.2674 7.40625 11.4271C7.56597 11.5868 7.76389 11.6667 8 11.6667ZM8 18.3333C6.97222 18.3333 6.00347 18.1354 5.09375 17.7396C4.18403 17.3438 3.38889 16.8056 2.70833 16.125C2.02778 15.4444 1.48958 14.6493 1.09375 13.7396C0.697917 12.8299 0.5 11.8611 0.5 10.8333C0.5 9.80556 0.697917 8.83681 1.09375 7.92709C1.48958 7.01736 2.02778 6.22223 2.70833 5.54167C3.38889 4.86111 4.18403 4.32292 5.09375 3.92709C6.00347 3.53125 6.97222 3.33334 8 3.33334C8.86111 3.33334 9.6875 3.47222 10.4792 3.75C11.2708 4.02778 12.0139 4.43056 12.7083 4.95834L13.2917 4.375C13.4444 4.22222 13.6389 4.14584 13.875 4.14584C14.1111 4.14584 14.3056 4.22222 14.4583 4.375C14.6111 4.52778 14.6875 4.72222 14.6875 4.95834C14.6875 5.19445 14.6111 5.38889 14.4583 5.54167L13.875 6.125C14.4028 6.81945 14.8056 7.5625 15.0833 8.35417C15.3611 9.14584 15.5 9.97223 15.5 10.8333C15.5 11.8611 15.3021 12.8299 14.9062 13.7396C14.5104 14.6493 13.9722 15.4444 13.2917 16.125C12.6111 16.8056 11.816 17.3438 10.9062 17.7396C9.99653 18.1354 9.02778 18.3333 8 18.3333ZM8 16.6667C9.61111 16.6667 10.9861 16.0972 12.125 14.9583C13.2639 13.8194 13.8333 12.4444 13.8333 10.8333C13.8333 9.22223 13.2639 7.84723 12.125 6.70834C10.9861 5.56945 9.61111 5 8 5C6.38889 5 5.01389 5.56945 3.875 6.70834C2.73611 7.84723 2.16667 9.22223 2.16667 10.8333C2.16667 12.4444 2.73611 13.8194 3.875 14.9583C5.01389 16.0972 6.38889 16.6667 8 16.6667Z" fill="#8092A1"/>
</svg>
