<svg width="54" height="20" viewBox="0 0 54 20" fill="none" xmlns="http://www.w3.org/2000/svg">
<path fill-rule="evenodd" clip-rule="evenodd" d="M52.9809 9.97904C50.2975 15.5136 38.4316 20 26.5658 20C14.7 20 7.19473 15.5136 9.87817 9.97904C12.5197 4.48637 24.4274 0 36.2933 0C48.1591 0 55.6643 4.48637 52.9809 9.97904Z" fill="#151317"/>
<path fill-rule="evenodd" clip-rule="evenodd" d="M35.832 0.503174C47.2366 0.503174 54.4064 4.69605 51.8487 9.85328C49.2911 15.0105 37.8865 19.2034 26.4819 19.2034C15.0773 19.2034 7.90745 15.0105 10.4651 9.85328C13.0647 4.69605 24.4693 0.503174 35.832 0.503174Z" fill="#647387"/>
<path fill-rule="evenodd" clip-rule="evenodd" d="M34.0291 1.38373C44.3435 1.38373 50.8006 5.15731 48.4525 9.76947C46.1045 14.3816 35.7901 18.1552 25.5175 18.1552C15.2031 18.1552 8.74605 14.3816 11.0521 9.76947C12.5616 6.79253 17.3834 4.19295 23.3372 2.68352C23.7565 2.55773 24.1758 2.47387 24.637 2.39002C27.6559 1.71916 30.8425 1.38373 34.0291 1.38373Z" fill="#151317"/>
<path fill-rule="evenodd" clip-rule="evenodd" d="M47.5302 5.95401C48.0334 6.79258 48.1172 7.75694 47.7399 8.7213C47.3625 9.47602 46.9432 10.063 46.2724 10.65C42.9181 13.7108 35.329 16.0169 27.7399 16.0169C18.809 16.0169 13.1906 12.8303 15.2032 8.93095C16.6287 6.28944 21.3667 3.85757 27.0271 2.64164C27.6979 2.47393 28.3688 2.39007 29.0396 2.26428C27.6979 2.39007 26.3981 2.59971 25.0983 2.85128C18.809 4.23493 13.4841 6.41523 11.9327 9.47602C9.7105 13.9624 15.9579 17.5683 25.8531 17.5683C33.9453 17.5683 42.0795 15.1364 45.9789 11.824C46.4401 11.4467 46.9432 10.9016 47.3206 10.3565C47.4883 10.1469 47.6141 9.89531 47.7399 9.68567C48.4946 8.34395 48.3269 7.04416 47.5302 5.95401Z" fill="#1254FF"/>
<path fill-rule="evenodd" clip-rule="evenodd" d="M6.0207 9.05672C5.85298 9.35022 5.64334 9.55986 5.47562 9.68565C5.26598 9.85337 5.01441 9.93722 4.67898 9.93722C4.46934 9.93722 4.30162 9.89529 4.25969 9.81144C4.25969 9.81144 4.17583 9.51794 4.46934 8.5955C4.67898 8.0085 4.88862 7.54729 5.14019 7.29571C5.47562 6.96028 5.81105 6.8345 6.18841 6.8345C6.3142 6.8345 6.43998 6.8345 6.48191 6.87643C6.52384 6.91836 6.56577 6.91836 6.56577 7.08607L6.6077 7.79886H9.92007C9.71042 8.05043 9.54271 8.34393 9.41692 8.67936H6.23034L6.0207 9.05672ZM13.9452 9.26636C13.8194 9.64372 13.6517 9.93722 13.484 10.063C13.3163 10.1888 13.1486 10.2727 12.9809 10.2727C12.9389 10.2727 12.9389 10.2727 12.897 10.2727C12.897 10.2307 12.897 10.063 12.9809 9.72758C13.0647 9.39215 13.2324 9.09865 13.4421 8.93093C13.6098 8.80515 13.7775 8.72129 13.9452 8.72129C13.9872 8.72129 13.9872 8.72129 13.9872 8.72129C14.0291 8.80515 14.0291 8.93093 13.9452 9.26636ZM21.744 9.26636C21.6601 9.60179 21.4924 9.85337 21.3666 9.97915C21.2408 10.063 21.157 10.1469 21.0731 10.1469C21.0731 10.1469 21.0731 10.1469 21.0312 10.1469C21.0312 10.1049 21.0312 9.97915 21.115 9.76951C21.2408 9.35022 21.4085 9.14058 21.4924 9.05672C21.6182 8.97286 21.702 8.88901 21.8278 8.88901C21.8278 8.93093 21.8278 9.05672 21.744 9.26636ZM44.7628 5.82821L45.6433 3.06091L41.157 4.90578L41.0312 4.94771L40.7377 5.82821H39.8572L39.8152 5.95399C39.4379 5.78628 39.0605 5.70242 38.6832 5.70242C38.3897 5.70242 38.0962 5.74435 37.8446 5.82821H34.3645L33.6936 7.92464C33.6936 7.84079 33.6936 7.75693 33.6936 7.67307C33.6517 7.21186 33.484 6.79257 33.2324 6.541C32.897 6.16364 32.4358 5.91207 31.8907 5.82821C31.4714 5.74435 30.8844 5.70242 30.0459 5.70242C29.5846 5.70242 29.1234 5.74435 28.6622 5.78628C28.1591 5.87014 27.7817 5.95399 27.4882 6.12171C27.0689 6.33135 26.6916 6.541 26.3981 6.79257C26.1465 7.00221 25.9368 7.29571 25.7272 7.67307C25.6853 7.46343 25.6014 7.21186 25.5176 7.04414C25.2241 6.45714 24.5951 5.70242 23.1695 5.70242C22.8341 5.70242 22.4987 5.74435 22.1633 5.82821H18.3477L17.8027 7.58922C17.7188 7.4215 17.635 7.21186 17.5511 7.04414C16.9641 6.12171 15.9159 5.66049 14.4064 5.66049C13.1486 5.66049 12.0584 5.99592 11.0941 6.66678C10.9264 6.79257 10.7586 6.91836 10.5909 7.04414C10.5909 5.74435 10.2555 4.82192 9.50078 4.23492C8.87185 3.68984 7.94942 3.43827 6.64963 3.43827C5.14019 3.43827 3.75655 3.85756 2.6664 4.6542C1.53433 5.45085 0.737683 6.62485 0.318396 8.09236C-0.0589623 9.22443 -0.100891 10.2307 0.19261 11.0274C0.486111 11.8659 0.989256 12.4529 1.70204 12.7884C2.33097 13.0819 3.16955 13.2496 4.21776 13.2496C5.09827 13.2496 5.85298 13.1238 6.48191 12.8722C7.11084 12.6207 7.73978 12.2852 8.28485 11.7821C8.53642 11.5724 8.82992 11.237 9.08149 10.9435C9.20728 11.5724 9.54271 12.0337 9.79428 12.2852C10.4232 12.9142 11.3456 13.2077 12.5616 13.2077C13.8194 13.2077 14.9515 12.8722 15.9159 12.2014C16.1674 12.0337 16.3771 11.8659 16.5867 11.6563L15.3708 15.388H19.354L20.0668 13.0819C20.4022 13.2077 20.8215 13.2915 21.2408 13.2915C22.1633 13.2915 23.0438 12.998 23.8404 12.3691C24.05 12.2014 24.2597 11.9917 24.4693 11.7821C24.5532 12.0756 24.679 12.3272 24.8886 12.5787C25.3079 13.0819 26.0207 13.3335 26.9851 13.3335C27.614 13.3335 28.2429 13.2496 28.788 13.0399C28.8718 12.998 28.9557 12.9561 29.0815 12.9142L29.1653 13.1657H36.0417L36.8383 10.6919C37.1737 9.64372 37.4672 9.26636 37.593 9.09865C37.7188 8.97286 37.8446 8.97286 37.9285 8.97286C37.9285 8.97286 38.0123 8.97286 38.222 9.05672L38.767 9.30829L39.0186 9.01479H39.7733L39.4379 10.063C39.1863 10.8597 39.1025 11.4047 39.1444 11.824C39.2282 12.3272 39.4798 12.7464 39.8991 12.998C40.2765 13.2077 40.7796 13.3335 41.5343 13.3335C42.0794 13.3335 42.7083 13.2496 43.3792 13.1238L43.7146 13.0399L43.8823 12.998L44.5532 9.72758L43.3373 10.063L43.6727 8.97286H44.9725L45.9368 5.82821H44.7628Z" fill="#363A3F"/>
<path fill-rule="evenodd" clip-rule="evenodd" d="M6.35619 8.8889L6.18848 9.14047C5.97884 9.43398 5.81112 9.68555 5.60148 9.81133C5.34991 10.021 5.0564 10.1048 4.67905 10.1048C4.38554 10.1048 4.1759 10.021 4.09204 9.89519C4.05012 9.85326 3.96626 9.55976 4.25976 8.51154C4.4694 7.88261 4.72097 7.4214 4.97255 7.1279C5.30798 6.79247 5.72726 6.62475 6.18848 6.62475C6.35619 6.62475 6.48198 6.66668 6.60777 6.70861C6.73355 6.79247 6.77548 6.87632 6.81741 7.08597L6.85934 7.58911H10.3394C10.004 7.96647 9.71049 8.38576 9.50085 8.84697H6.35619V8.8889ZM14.113 9.30819C13.9872 9.72748 13.8195 10.0629 13.6099 10.2306C13.4002 10.3983 13.1906 10.4822 12.9809 10.4822C12.8132 10.4822 12.7713 10.3983 12.7294 10.3564C12.7294 10.3564 12.6455 10.1887 12.8132 9.64362C12.939 9.26626 13.1067 8.97276 13.3164 8.76312C13.526 8.5954 13.7356 8.51154 13.9453 8.51154C14.113 8.51154 14.1549 8.55347 14.1549 8.5954C14.1969 8.67926 14.2807 8.80505 14.113 9.30819ZM20.9474 9.68555C21.0732 9.30819 21.2409 9.01469 21.4086 8.8889C21.5763 8.76312 21.744 8.67926 21.9117 8.67926C21.9956 8.67926 21.9956 8.67926 22.0375 8.72119C22.0375 8.76312 22.0795 8.93083 21.9537 9.30819C21.8279 9.68555 21.7021 9.97905 21.4925 10.1468C21.3247 10.2726 21.199 10.3564 21.0732 10.3564C20.9055 10.3564 20.8635 10.3145 20.8635 10.2726C20.8635 10.2306 20.7797 10.1048 20.9474 9.68555ZM25.4338 9.55976C25.5176 9.26626 25.5595 8.97276 25.6015 8.72119L26.6497 8.84697C26.2723 8.97276 25.9369 9.14047 25.6853 9.35012C25.6015 9.39205 25.5176 9.4759 25.4338 9.55976ZM44.9306 8.76312L45.7692 6.03775H44.4694L45.308 3.39624L41.199 5.07339L40.9055 5.99582H40.025L39.983 6.20546C39.5637 5.99582 39.1445 5.87003 38.7252 5.87003C38.4317 5.87003 38.1801 5.91196 37.9285 5.99582H34.5323L32.5197 12.4528V12.3271C32.4778 12.0755 32.4778 11.9078 32.4778 11.8658C32.4778 11.782 32.5197 11.6562 32.6036 11.3627L33.4002 8.80505C33.526 8.46962 33.5679 8.13419 33.526 7.7149C33.4841 7.29561 33.3583 6.91825 33.1067 6.70861C32.8132 6.37318 32.3939 6.16354 31.8489 6.07968C31.4296 5.99582 30.8426 5.95389 30.0459 5.95389C29.5847 5.95389 29.1235 5.99582 28.7042 6.03775C28.2011 6.12161 27.8656 6.20546 27.5721 6.33125C27.1528 6.49897 26.8174 6.70861 26.5658 6.96018C26.2723 7.21175 26.0208 7.54718 25.8111 8.0084L25.6015 8.38576C25.6015 7.92454 25.5176 7.50525 25.3499 7.16983C25.0983 6.62475 24.5113 5.95389 23.1696 5.95389C22.7084 5.95389 22.2891 6.03775 21.8279 6.20546L21.8698 6.07968H18.4736L17.7189 8.46962C17.7189 8.0084 17.5931 7.58911 17.3415 7.21175C16.7964 6.37318 15.7902 5.95389 14.3646 5.95389C13.1486 5.95389 12.1004 6.28932 11.178 6.91825C10.8845 7.1279 10.591 7.37947 10.3814 7.63104V7.1279C10.3814 5.91196 10.0459 5.03146 9.37506 4.48639C8.78806 3.98324 7.90756 3.73167 6.6497 3.73167C5.18219 3.73167 3.84047 4.15096 2.75033 4.90567C1.66018 5.70232 0.905465 6.8344 0.44425 8.25997C0.10882 9.35012 0.066891 10.3145 0.318463 11.0692C0.611964 11.8658 1.07318 12.4109 1.70211 12.7044C2.28911 12.9979 3.12769 13.1656 4.13397 13.1656C4.97255 13.1656 5.72726 13.0398 6.31427 12.8302C6.9432 12.6206 7.5302 12.2432 8.03334 11.782C8.36877 11.4466 8.78806 11.0273 9.08156 10.5661C9.12349 11.4046 9.45892 11.9497 9.79435 12.2851C10.3814 12.8721 11.2619 13.1656 12.3939 13.1656C13.6099 13.1656 14.7 12.8302 15.6224 12.2013C16.1256 11.8239 16.5449 11.4046 16.8803 10.9434L15.5386 15.2621H19.1025L19.8572 12.8721C19.8992 12.9141 19.9411 12.9141 19.983 12.956C20.3185 13.1237 20.7377 13.2076 21.157 13.2076C22.0375 13.2076 22.8761 12.9141 23.6308 12.3271C23.9663 12.0755 24.2598 11.7401 24.5533 11.3627C24.5113 11.9078 24.7629 12.2851 24.9725 12.5367C25.3918 12.9979 26.0208 13.2076 26.9432 13.2076C27.5721 13.2076 28.1591 13.1237 28.6623 12.9141C28.83 12.8721 28.9558 12.7883 29.1235 12.7044L29.2493 13.0398H35.9159L36.6287 10.6918C36.9642 9.68555 37.2577 9.22433 37.4673 9.01469C37.635 8.8889 37.7608 8.80505 37.9285 8.80505C37.9704 8.80505 38.0962 8.80504 38.3059 8.93083L38.6832 9.09855L38.8929 8.84697H40.025L39.6057 10.1468C39.3541 10.9015 39.2702 11.4466 39.3541 11.8239C39.438 12.2851 39.6476 12.6625 40.025 12.8721C40.3604 13.0818 40.8635 13.1656 41.5763 13.1656C42.1214 13.1656 42.7084 13.0818 43.3793 12.956L43.7566 12.8721L44.3436 10.0629L43.4631 10.3145C43.3373 10.3564 43.2115 10.3983 43.1277 10.3983L43.6308 8.80505H44.9306V8.76312Z" fill="#151317"/>
<path fill-rule="evenodd" clip-rule="evenodd" d="M7.7817 11.3208C8.28485 10.8596 8.87185 10.1049 9.16535 9.47596H6.64963C6.43998 9.81139 6.18841 10.1049 5.93684 10.3145C5.60141 10.5661 5.18212 10.7338 4.67898 10.7338C4.17583 10.7338 3.79847 10.5661 3.63075 10.2307C3.42111 9.89524 3.50496 9.26631 3.75654 8.38581C4.00812 7.67302 4.25969 7.12795 4.63705 6.79252C5.09826 6.3313 5.64334 6.12166 6.23034 6.12166C6.48191 6.12166 6.73348 6.16359 6.9012 6.28937C7.23663 6.45709 7.36241 6.75059 7.40434 7.12795H9.92006C9.92006 6.3313 9.79428 5.4508 9.12342 4.90573C8.62028 4.48644 7.86556 4.27679 6.77541 4.27679C5.39176 4.27679 4.21776 4.65415 3.21146 5.36694C2.2471 6.07973 1.53431 7.08602 1.11503 8.42774C0.779596 9.43403 0.737667 10.2307 0.98924 10.9015C1.24081 11.5305 1.57624 11.9917 2.12132 12.2433C2.62446 12.4948 3.33725 12.6206 4.30162 12.6206C5.05633 12.6206 5.72719 12.5368 6.3142 12.2852C6.77541 12.0336 7.27856 11.7401 7.7817 11.3208ZM13.9452 10.65C14.2387 10.3984 14.4903 10.021 14.658 9.47596C14.8257 8.97281 14.8257 8.59545 14.658 8.34388C14.5322 8.09231 14.2807 7.96652 13.9452 7.96652C13.5679 7.96652 13.2744 8.09231 12.9389 8.34388C12.6454 8.59545 12.3939 8.97281 12.2681 9.47596C12.1004 9.9791 12.1004 10.3565 12.2681 10.608C12.3939 10.8596 12.6454 10.9854 12.9809 10.9854C13.3582 11.0273 13.6517 10.9015 13.9452 10.65ZM14.4064 6.45709C15.6643 6.45709 16.5029 6.79252 16.9222 7.46338C17.2576 8.00845 17.2995 8.67931 17.0479 9.47596C16.7544 10.3565 16.2094 11.1112 15.4127 11.6562C14.6161 12.2433 13.6517 12.5368 12.5196 12.5368C11.5134 12.5368 10.7586 12.2852 10.2974 11.824C9.71042 11.237 9.58464 10.4403 9.87814 9.51788C10.1716 8.63738 10.7167 7.88266 11.5134 7.33759C12.3519 6.75059 13.3163 6.45709 14.4064 6.45709ZM22.4987 9.47596C22.331 9.9791 22.1213 10.3565 21.8698 10.5661C21.6182 10.7757 21.3666 10.9015 21.0731 10.9015C20.7377 10.9015 20.528 10.7757 20.4022 10.5661C20.2765 10.3565 20.2765 9.9791 20.4022 9.51788C20.57 9.01474 20.7796 8.63738 21.0312 8.42774C21.3247 8.21809 21.5762 8.09231 21.9117 8.09231C22.2052 8.09231 22.3729 8.17617 22.4987 8.42774C22.6664 8.63738 22.6245 8.97281 22.4987 9.47596ZM24.8467 7.33759C24.5532 6.75059 24.0081 6.45709 23.1695 6.45709C22.7503 6.45709 22.331 6.54094 21.9536 6.70866C21.6601 6.83445 21.2827 7.08602 20.8635 7.42145L21.115 6.58287H18.8928L16.3771 14.6332H18.767L19.6475 11.8659C19.8152 12.1175 20.0249 12.2852 20.3184 12.369C20.57 12.4948 20.9054 12.5368 21.2827 12.5368C22.0375 12.5368 22.7503 12.2852 23.3792 11.782C24.05 11.2789 24.5113 10.5242 24.8048 9.55981C25.1402 8.67931 25.1402 7.92459 24.8467 7.33759ZM29.7104 10.6919C29.8781 10.5242 29.962 10.2726 30.0878 10.021L30.2136 9.64367C29.8362 9.76946 29.5008 9.85331 29.0815 9.93717C28.5783 10.063 28.201 10.1887 28.0333 10.3145C27.8656 10.4403 27.7398 10.5661 27.6978 10.7338C27.6559 10.9015 27.6559 11.0692 27.7398 11.1531C27.8236 11.2789 27.9913 11.3208 28.2429 11.3208C28.5364 11.3208 28.788 11.2789 29.0396 11.1531C29.375 10.9854 29.5846 10.8596 29.7104 10.6919ZM32.6874 7.04409C32.8551 7.2118 32.9389 7.42145 32.9389 7.71495C32.9389 8.00845 32.9389 8.30195 32.8551 8.59545L32.0584 11.1531C31.9746 11.4466 31.9326 11.6562 31.9326 11.782C31.9326 11.9497 31.9326 12.1175 31.9746 12.369H29.7524C29.7104 12.2013 29.6685 12.1175 29.6685 12.0336C29.6685 11.9497 29.6685 11.824 29.7104 11.6562C29.3331 11.9497 28.9557 12.1175 28.5783 12.2433C28.1171 12.411 27.5721 12.4948 27.027 12.4948C26.2723 12.4948 25.7691 12.3271 25.4756 11.9917C25.1821 11.6562 25.1402 11.2789 25.266 10.8177C25.3918 10.3984 25.6433 10.021 26.0207 9.72753C26.3981 9.43403 26.9851 9.22438 27.7817 9.0986C28.7461 8.93088 29.3331 8.8051 29.6266 8.76317C29.9201 8.67931 30.2136 8.59545 30.549 8.5116C30.6329 8.21809 30.6329 8.05038 30.549 7.92459C30.4651 7.79881 30.2555 7.75688 29.962 7.75688C29.5846 7.75688 29.2492 7.79881 29.0396 7.92459C28.8718 8.00845 28.7041 8.17617 28.4945 8.42774L26.2723 8.26002C26.4819 7.88266 26.6916 7.58916 26.9431 7.37952C27.1528 7.16988 27.4463 7.00216 27.8236 6.83445C28.0752 6.70866 28.4106 6.6248 28.788 6.58287C29.2073 6.54095 29.6266 6.49902 30.0459 6.49902C30.7586 6.49902 31.3456 6.54095 31.723 6.6248C32.1842 6.6248 32.4777 6.79252 32.6874 7.04409ZM34.9515 6.58287H37.1737L36.8802 7.54723C37.2157 7.12795 37.5511 6.87637 37.8027 6.70866C38.0962 6.54094 38.3897 6.45709 38.7251 6.45709C39.1025 6.45709 39.4379 6.54095 39.7733 6.75059L38.5574 8.34388C38.3058 8.21809 38.0962 8.17616 37.9285 8.17616C37.593 8.17616 37.3414 8.30195 37.0899 8.5116C36.7544 8.84702 36.419 9.47596 36.1255 10.4403L35.4966 12.411H33.1067L34.9515 6.58287ZM43.7146 6.58287L44.4274 4.36065L41.6601 5.49273L41.3247 6.58287H40.4442L39.941 8.21809H40.8215L40.1926 10.2726C39.983 10.9435 39.8991 11.4047 39.941 11.6982C39.983 11.9917 40.1087 12.2013 40.3603 12.369C40.6119 12.4948 41.0312 12.5787 41.6182 12.5787C42.1213 12.5787 42.7083 12.5368 43.3373 12.411L43.6727 10.8596C43.3373 10.9435 43.0438 11.0273 42.876 11.0273C42.6664 11.0273 42.5406 10.9435 42.5406 10.8177C42.5406 10.7338 42.5406 10.5661 42.6245 10.3145L43.2534 8.26002H44.5532L45.0563 6.6248H43.7146V6.58287Z" fill="white"/>
</svg>
