<svg width="34" height="20" viewBox="0 0 34 20" fill="none" xmlns="http://www.w3.org/2000/svg">
<g clip-path="url(#clip0_21_236)">
<path d="M10.2177 0L0 19.9903H3.66715L13.8945 0H10.2177Z" fill="#C90107"/>
<path d="M17.3101 0V19.9903H20.9676V15.8781H25.7378L27.8278 19.9806H31.4659L21.403 0H17.3101ZM20.9579 6.51186L24.238 12.9657H20.9579V6.51186Z" fill="#C90107"/>
<path d="M10.866 12.9753H14.1461V6.52153L10.866 12.9753Z" fill="#C90107"/>
<path d="M32.3367 18.1713H32.4722C32.627 18.1713 32.7625 18.1132 32.7625 17.9681C32.7625 17.8616 32.6851 17.7552 32.4722 17.7552C32.4141 17.7552 32.3657 17.7649 32.3367 17.7649V18.1713ZM32.3367 18.8292H32.1432V17.6488C32.24 17.6391 32.3367 17.6197 32.4819 17.6197C32.6657 17.6197 32.7818 17.6584 32.8495 17.7068C32.9173 17.7552 32.956 17.8423 32.956 17.9487C32.956 18.1035 32.8495 18.2003 32.7238 18.239V18.2487C32.8302 18.268 32.8979 18.3648 32.927 18.5389C32.956 18.7228 32.985 18.7905 33.0044 18.8292H32.8108C32.7818 18.7905 32.7528 18.6841 32.7334 18.5293C32.7044 18.3745 32.627 18.3164 32.4819 18.3164H32.3367V18.8292ZM32.5302 17.3198C32.0658 17.3198 31.6788 17.7165 31.6788 18.2196C31.6788 18.7228 32.0561 19.1195 32.5302 19.1195C33.0044 19.1292 33.3817 18.7228 33.3817 18.2196C33.3914 17.7165 33.0044 17.3198 32.5302 17.3198ZM32.5399 17.1553C33.1205 17.1553 33.5849 17.6294 33.5849 18.2196C33.5849 18.8195 33.1205 19.284 32.5399 19.284C31.9594 19.284 31.4852 18.8195 31.4852 18.2196C31.4852 17.6197 31.9497 17.1553 32.5399 17.1553Z" fill="#C90107"/>
<path d="M9.35656 15.9652L7.31495 20H14.1655V15.9652H9.35656Z" fill="#C90107"/>
</g>
<defs>
<clipPath id="clip0_21_236">
<rect width="33.5849" height="20" fill="white"/>
</clipPath>
</defs>
</svg>
