<svg width="10" height="6" viewBox="0 0 10 6" fill="none" xmlns="http://www.w3.org/2000/svg">
<path d="M4.99999 5.47918C4.88888 5.47918 4.78471 5.46182 4.68749 5.42709C4.59027 5.39237 4.49999 5.33334 4.41666 5.25001L0.583323 1.41668C0.430545 1.2639 0.354156 1.06945 0.354156 0.833344C0.354156 0.597232 0.430545 0.402788 0.583323 0.25001C0.736101 0.0972324 0.930545 0.0208435 1.16666 0.0208435C1.40277 0.0208435 1.59721 0.0972324 1.74999 0.25001L4.99999 3.50001L8.24999 0.25001C8.40277 0.0972324 8.59721 0.0208435 8.83332 0.0208435C9.06943 0.0208435 9.26388 0.0972324 9.41666 0.25001C9.56943 0.402788 9.64582 0.597232 9.64582 0.833344C9.64582 1.06945 9.56943 1.2639 9.41666 1.41668L5.58332 5.25001C5.49999 5.33334 5.40971 5.39237 5.31249 5.42709C5.21527 5.46182 5.1111 5.47918 4.99999 5.47918Z" fill="black"/>
</svg>
