<svg width="10" height="6" viewBox="0 0 10 6" fill="none" xmlns="http://www.w3.org/2000/svg">
<path d="M4.99999 2L1.74999 5.25C1.59721 5.40278 1.40277 5.47917 1.16666 5.47917C0.930545 5.47917 0.736101 5.40278 0.583323 5.25C0.430545 5.09722 0.354156 4.90278 0.354156 4.66667C0.354156 4.43056 0.430545 4.23611 0.583323 4.08333L4.41666 0.25C4.58332 0.0833333 4.77777 0 4.99999 0C5.22221 0 5.41666 0.0833333 5.58332 0.25L9.41666 4.08333C9.56943 4.23611 9.64582 4.43056 9.64582 4.66667C9.64582 4.90278 9.56943 5.09722 9.41666 5.25C9.26388 5.40278 9.06943 5.47917 8.83332 5.47917C8.59721 5.47917 8.40277 5.40278 8.24999 5.25L4.99999 2Z" fill="black"/>
</svg>
